<mxfile host="app.diagrams.net" modified="2021-11-30T11:42:54.625Z" agent="5.0 (Windows NT 10.0; Win64; x64) AppleWebKit/537.36 (KHTML, like Gecko) Chrome/96.0.4664.45 Safari/537.36" etag="KGUp8ftiMhvV8VeRSOlW" version="15.8.7" type="github" pages="5">
  <diagram name="case diagram" id="Gijq7qDvpiLWK-LD0Xt9">
    <mxGraphModel dx="1422" dy="766" grid="1" gridSize="10" guides="1" tooltips="1" connect="1" arrows="1" fold="1" page="1" pageScale="1" pageWidth="850" pageHeight="1100" math="0" shadow="0">
      <root>
        <mxCell id="0" />
        <mxCell id="1" parent="0" />
        <mxCell id="Y08wk3QRID_6aoynp0Ck-1" value="&amp;nbsp;User" style="shape=umlActor;verticalLabelPosition=bottom;verticalAlign=top;html=1;outlineConnect=0;" parent="1" vertex="1">
          <mxGeometry x="120" y="60" width="30" height="60" as="geometry" />
        </mxCell>
        <mxCell id="Y08wk3QRID_6aoynp0Ck-2" value="New User" style="shape=umlActor;verticalLabelPosition=bottom;verticalAlign=top;html=1;outlineConnect=0;movable=1;" parent="1" vertex="1">
          <mxGeometry x="50" y="200" width="30" height="60" as="geometry" />
        </mxCell>
        <mxCell id="Y08wk3QRID_6aoynp0Ck-4" value="Registered User" style="shape=umlActor;verticalLabelPosition=bottom;verticalAlign=top;html=1;outlineConnect=0;movable=1;" parent="1" vertex="1">
          <mxGeometry x="190" y="200" width="30" height="60" as="geometry" />
        </mxCell>
        <mxCell id="Y08wk3QRID_6aoynp0Ck-7" value="" style="ellipse;whiteSpace=wrap;html=1;" parent="1" vertex="1">
          <mxGeometry x="210" y="60" width="120" height="40" as="geometry" />
        </mxCell>
        <mxCell id="Y08wk3QRID_6aoynp0Ck-8" value="Ask for cleaning" style="ellipse;whiteSpace=wrap;html=1;verticalAlign=top;labelPosition=center;verticalLabelPosition=bottom;align=center;movable=1;" parent="1" vertex="1">
          <mxGeometry x="305" y="130" width="120" height="40" as="geometry" />
        </mxCell>
        <mxCell id="Y08wk3QRID_6aoynp0Ck-15" value="Show app reviews" style="text;html=1;resizable=0;autosize=1;align=center;verticalAlign=middle;points=[];fillColor=none;strokeColor=none;rounded=0;movable=1;" parent="1" vertex="1">
          <mxGeometry x="190" y="100" width="110" height="20" as="geometry" />
        </mxCell>
        <mxCell id="Y08wk3QRID_6aoynp0Ck-20" value="Text" style="text;html=1;resizable=0;autosize=1;align=center;verticalAlign=middle;points=[];fillColor=none;strokeColor=none;rounded=0;" parent="1" vertex="1">
          <mxGeometry x="520" y="70" width="40" height="20" as="geometry" />
        </mxCell>
        <mxCell id="Y08wk3QRID_6aoynp0Ck-23" value="Ask for Maintenence" style="ellipse;whiteSpace=wrap;html=1;verticalAlign=top;labelPosition=center;verticalLabelPosition=bottom;align=center;movable=1;" parent="1" vertex="1">
          <mxGeometry x="350" y="200" width="120" height="40" as="geometry" />
        </mxCell>
        <mxCell id="Y08wk3QRID_6aoynp0Ck-24" value="Manage Order" style="ellipse;whiteSpace=wrap;html=1;verticalAlign=top;labelPosition=center;verticalLabelPosition=bottom;align=center;movable=1;" parent="1" vertex="1">
          <mxGeometry x="300" y="280" width="120" height="40" as="geometry" />
        </mxCell>
        <mxCell id="Y08wk3QRID_6aoynp0Ck-25" value="Rate Service" style="ellipse;whiteSpace=wrap;html=1;verticalAlign=top;labelPosition=center;verticalLabelPosition=bottom;align=center;movable=1;" parent="1" vertex="1">
          <mxGeometry x="145" y="380" width="120" height="40" as="geometry" />
        </mxCell>
        <mxCell id="Y08wk3QRID_6aoynp0Ck-26" value="Register" style="ellipse;whiteSpace=wrap;html=1;verticalAlign=top;labelPosition=center;verticalLabelPosition=bottom;align=center;movable=1;" parent="1" vertex="1">
          <mxGeometry x="5" y="380" width="120" height="40" as="geometry" />
        </mxCell>
        <mxCell id="Y08wk3QRID_6aoynp0Ck-28" value="Check Credit" style="ellipse;whiteSpace=wrap;html=1;verticalAlign=top;labelPosition=center;verticalLabelPosition=bottom;align=center;movable=1;" parent="1" vertex="1">
          <mxGeometry x="580" y="200" width="120" height="40" as="geometry" />
        </mxCell>
        <mxCell id="Y08wk3QRID_6aoynp0Ck-29" value="" style="endArrow=classic;html=1;rounded=0;exitX=0.487;exitY=0.637;exitDx=0;exitDy=0;exitPerimeter=0;entryX=0.5;entryY=0;entryDx=0;entryDy=0;movable=1;" parent="1" source="Y08wk3QRID_6aoynp0Ck-2" target="Y08wk3QRID_6aoynp0Ck-26" edge="1">
          <mxGeometry width="50" height="50" relative="1" as="geometry">
            <mxPoint x="80" y="350" as="sourcePoint" />
            <mxPoint x="130" y="300" as="targetPoint" />
          </mxGeometry>
        </mxCell>
        <mxCell id="Y08wk3QRID_6aoynp0Ck-31" value="" style="endArrow=classic;html=1;rounded=0;entryX=0.5;entryY=0;entryDx=0;entryDy=0;movable=1;exitX=0.5;exitY=0.5;exitDx=0;exitDy=0;exitPerimeter=0;" parent="1" source="Y08wk3QRID_6aoynp0Ck-4" target="Y08wk3QRID_6aoynp0Ck-25" edge="1">
          <mxGeometry width="50" height="50" relative="1" as="geometry">
            <mxPoint x="140" y="250" as="sourcePoint" />
            <mxPoint x="240" y="290" as="targetPoint" />
          </mxGeometry>
        </mxCell>
        <mxCell id="Y08wk3QRID_6aoynp0Ck-34" value="" style="endArrow=block;endSize=16;endFill=0;html=1;rounded=0;exitX=0.5;exitY=0;exitDx=0;exitDy=0;exitPerimeter=0;entryX=0;entryY=1;entryDx=0;entryDy=0;entryPerimeter=0;movable=1;" parent="1" source="Y08wk3QRID_6aoynp0Ck-2" target="Y08wk3QRID_6aoynp0Ck-1" edge="1">
          <mxGeometry width="160" relative="1" as="geometry">
            <mxPoint x="-40" y="170" as="sourcePoint" />
            <mxPoint x="120" y="170" as="targetPoint" />
          </mxGeometry>
        </mxCell>
        <mxCell id="Y08wk3QRID_6aoynp0Ck-35" value="" style="endArrow=block;endSize=16;endFill=0;html=1;rounded=0;exitX=0.5;exitY=0;exitDx=0;exitDy=0;exitPerimeter=0;entryX=1;entryY=1;entryDx=0;entryDy=0;entryPerimeter=0;movable=1;" parent="1" source="Y08wk3QRID_6aoynp0Ck-4" target="Y08wk3QRID_6aoynp0Ck-1" edge="1">
          <mxGeometry width="160" relative="1" as="geometry">
            <mxPoint x="130" y="180" as="sourcePoint" />
            <mxPoint x="290" y="180" as="targetPoint" />
          </mxGeometry>
        </mxCell>
        <mxCell id="XgKdybuxsY9f9tBJWYD8-1" value="&amp;lt;&amp;lt;include&amp;gt;&amp;gt;" style="endArrow=open;endSize=12;dashed=1;rounded=0;entryX=0;entryY=0.5;entryDx=0;entryDy=0;exitX=1;exitY=0.5;exitDx=0;exitDy=0;strokeWidth=1;spacingTop=0;spacing=0;spacingBottom=0;html=1;" parent="1" source="Y08wk3QRID_6aoynp0Ck-8" target="Y08wk3QRID_6aoynp0Ck-28" edge="1">
          <mxGeometry x="0.3314" y="18" width="160" relative="1" as="geometry">
            <mxPoint x="430" y="160" as="sourcePoint" />
            <mxPoint x="590" y="160" as="targetPoint" />
            <mxPoint as="offset" />
          </mxGeometry>
        </mxCell>
        <mxCell id="XgKdybuxsY9f9tBJWYD8-2" value="&amp;lt;&amp;lt;extend&amp;gt;&amp;gt;" style="html=1;verticalAlign=bottom;endArrow=open;dashed=1;endSize=8;rounded=0;exitX=0;exitY=0.5;exitDx=0;exitDy=0;entryX=1;entryY=0.5;entryDx=0;entryDy=0;" parent="1" source="Y08wk3QRID_6aoynp0Ck-28" target="Y08wk3QRID_6aoynp0Ck-24" edge="1">
          <mxGeometry x="-0.2" y="31" relative="1" as="geometry">
            <mxPoint x="530" y="320" as="sourcePoint" />
            <mxPoint x="450" y="320" as="targetPoint" />
            <Array as="points">
              <mxPoint x="500" y="260" />
            </Array>
            <mxPoint x="1" as="offset" />
          </mxGeometry>
        </mxCell>
        <mxCell id="XgKdybuxsY9f9tBJWYD8-8" value="&amp;lt;&amp;lt;include&amp;gt;&amp;gt;" style="endArrow=open;endSize=12;dashed=1;rounded=0;exitX=1;exitY=0.5;exitDx=0;exitDy=0;strokeWidth=1;spacingTop=0;spacing=0;spacingBottom=0;html=1;" parent="1" source="Y08wk3QRID_6aoynp0Ck-23" edge="1">
          <mxGeometry x="-0.3846" y="10" width="160" relative="1" as="geometry">
            <mxPoint x="420" y="160" as="sourcePoint" />
            <mxPoint x="580" y="220" as="targetPoint" />
            <mxPoint as="offset" />
          </mxGeometry>
        </mxCell>
        <mxCell id="XgKdybuxsY9f9tBJWYD8-9" value="" style="endArrow=open;endFill=1;endSize=12;html=1;rounded=0;fontSize=13;strokeWidth=1;exitX=1;exitY=0.3333333333333333;exitDx=0;exitDy=0;exitPerimeter=0;entryX=0;entryY=0.5;entryDx=0;entryDy=0;" parent="1" source="Y08wk3QRID_6aoynp0Ck-1" target="Y08wk3QRID_6aoynp0Ck-7" edge="1">
          <mxGeometry width="160" relative="1" as="geometry">
            <mxPoint x="280" y="450" as="sourcePoint" />
            <mxPoint x="440" y="450" as="targetPoint" />
          </mxGeometry>
        </mxCell>
        <mxCell id="XgKdybuxsY9f9tBJWYD8-10" value="" style="endArrow=open;endFill=1;endSize=12;html=1;rounded=0;fontSize=13;strokeWidth=1;entryX=0;entryY=0.5;entryDx=0;entryDy=0;exitX=1;exitY=0.3333333333333333;exitDx=0;exitDy=0;exitPerimeter=0;" parent="1" source="Y08wk3QRID_6aoynp0Ck-4" target="Y08wk3QRID_6aoynp0Ck-24" edge="1">
          <mxGeometry width="160" relative="1" as="geometry">
            <mxPoint x="200" y="220" as="sourcePoint" />
            <mxPoint x="200" y="90" as="targetPoint" />
          </mxGeometry>
        </mxCell>
        <mxCell id="XgKdybuxsY9f9tBJWYD8-11" value="" style="endArrow=open;endFill=1;endSize=12;html=1;rounded=0;fontSize=13;strokeWidth=1;exitX=1;exitY=0.3333333333333333;exitDx=0;exitDy=0;exitPerimeter=0;entryX=0;entryY=0.5;entryDx=0;entryDy=0;" parent="1" source="Y08wk3QRID_6aoynp0Ck-4" target="Y08wk3QRID_6aoynp0Ck-8" edge="1">
          <mxGeometry width="160" relative="1" as="geometry">
            <mxPoint x="160" y="100" as="sourcePoint" />
            <mxPoint x="210" y="100" as="targetPoint" />
          </mxGeometry>
        </mxCell>
        <mxCell id="XgKdybuxsY9f9tBJWYD8-12" value="" style="endArrow=open;endFill=1;endSize=12;html=1;rounded=0;fontSize=13;strokeWidth=1;exitX=1;exitY=0.3333333333333333;exitDx=0;exitDy=0;exitPerimeter=0;entryX=0;entryY=0.5;entryDx=0;entryDy=0;" parent="1" source="Y08wk3QRID_6aoynp0Ck-4" target="Y08wk3QRID_6aoynp0Ck-23" edge="1">
          <mxGeometry width="160" relative="1" as="geometry">
            <mxPoint x="170" y="110" as="sourcePoint" />
            <mxPoint x="220" y="110" as="targetPoint" />
          </mxGeometry>
        </mxCell>
      </root>
    </mxGraphModel>
  </diagram>
  <diagram name="Rate" id="TMRG63shAnXFpiIUeO6N">
    <mxGraphModel dx="1038" dy="579" grid="1" gridSize="10" guides="1" tooltips="1" connect="1" arrows="1" fold="1" page="1" pageScale="1" pageWidth="850" pageHeight="1100" background="none" math="0" shadow="0">
      <root>
        <mxCell id="b0QggLXN9zcAGgmRZ5NT-0" />
        <mxCell id="b0QggLXN9zcAGgmRZ5NT-1" parent="b0QggLXN9zcAGgmRZ5NT-0" />
        <mxCell id="XAcD_1vlL-8pBsXDhlGb-1" value="&lt;b style=&quot;line-height: 1.2&quot;&gt;&lt;font style=&quot;font-size: 15px&quot;&gt;Enter Service ID&lt;/font&gt;&lt;/b&gt;" style="strokeWidth=1;html=1;shape=mxgraph.flowchart.terminator;whiteSpace=wrap;shadow=0;glass=0;sketch=0;gradientColor=none;" parent="b0QggLXN9zcAGgmRZ5NT-1" vertex="1">
          <mxGeometry x="117.5" y="70" width="165" height="50" as="geometry" />
        </mxCell>
        <mxCell id="XAcD_1vlL-8pBsXDhlGb-2" value="" style="ellipse;whiteSpace=wrap;html=1;aspect=fixed;shadow=0;glass=0;sketch=0;strokeColor=default;strokeWidth=0;flipV=1;flipH=1;labelBackgroundColor=default;gradientColor=#ffffff;" parent="b0QggLXN9zcAGgmRZ5NT-1" vertex="1">
          <mxGeometry x="185" y="10" width="30" height="30" as="geometry" />
        </mxCell>
        <mxCell id="XAcD_1vlL-8pBsXDhlGb-3" value="Valid" style="rhombus;whiteSpace=wrap;html=1;shadow=0;glass=0;labelBackgroundColor=default;sketch=0;strokeColor=default;strokeWidth=1;perimeterSpacing=0;" parent="b0QggLXN9zcAGgmRZ5NT-1" vertex="1">
          <mxGeometry x="161.75" y="240" width="80" height="50" as="geometry" />
        </mxCell>
        <mxCell id="dv-Jq8858sxeqTXLYYpY-0" value="&lt;b&gt;&lt;font style=&quot;font-size: 15px&quot;&gt;Search Service&amp;nbsp;&lt;/font&gt;&lt;/b&gt;" style="strokeWidth=1;html=1;shape=mxgraph.flowchart.terminator;whiteSpace=wrap;shadow=0;glass=0;sketch=0;gradientColor=none;fontSize=12;" parent="b0QggLXN9zcAGgmRZ5NT-1" vertex="1">
          <mxGeometry x="121" y="160" width="161.5" height="50" as="geometry" />
        </mxCell>
        <mxCell id="dv-Jq8858sxeqTXLYYpY-1" value="&lt;b&gt;&lt;font style=&quot;font-size: 15px&quot;&gt;Search service&amp;nbsp;&lt;br&gt;appointment&lt;br&gt;&lt;/font&gt;&lt;/b&gt;" style="strokeWidth=1;html=1;shape=mxgraph.flowchart.terminator;whiteSpace=wrap;shadow=0;glass=0;sketch=0;gradientColor=none;" parent="b0QggLXN9zcAGgmRZ5NT-1" vertex="1">
          <mxGeometry x="109.25" y="330" width="185" height="50" as="geometry" />
        </mxCell>
        <mxCell id="dv-Jq8858sxeqTXLYYpY-2" value="&lt;span&gt;Valid&lt;/span&gt;" style="rhombus;whiteSpace=wrap;html=1;shadow=0;glass=0;labelBackgroundColor=default;sketch=0;strokeColor=default;strokeWidth=1;perimeterSpacing=0;" parent="b0QggLXN9zcAGgmRZ5NT-1" vertex="1">
          <mxGeometry x="161.75" y="410" width="80" height="50" as="geometry" />
        </mxCell>
        <mxCell id="dv-Jq8858sxeqTXLYYpY-3" value="&lt;b&gt;&lt;font style=&quot;font-size: 15px&quot;&gt;Rate Service&lt;/font&gt;&lt;/b&gt;" style="strokeWidth=1;html=1;shape=mxgraph.flowchart.terminator;whiteSpace=wrap;shadow=0;glass=0;sketch=0;gradientColor=none;" parent="b0QggLXN9zcAGgmRZ5NT-1" vertex="1">
          <mxGeometry x="109.25" y="500" width="185" height="50" as="geometry" />
        </mxCell>
        <mxCell id="dv-Jq8858sxeqTXLYYpY-6" value="" style="endArrow=open;endFill=1;endSize=12;html=1;rounded=0;exitX=0.5;exitY=1;exitDx=0;exitDy=0;exitPerimeter=0;entryX=0.5;entryY=0;entryDx=0;entryDy=0;" parent="b0QggLXN9zcAGgmRZ5NT-1" source="dv-Jq8858sxeqTXLYYpY-0" target="XAcD_1vlL-8pBsXDhlGb-3" edge="1">
          <mxGeometry width="160" relative="1" as="geometry">
            <mxPoint x="250" y="220" as="sourcePoint" />
            <mxPoint x="410" y="220" as="targetPoint" />
          </mxGeometry>
        </mxCell>
        <mxCell id="dv-Jq8858sxeqTXLYYpY-7" value="" style="endArrow=open;endFill=1;endSize=12;html=1;rounded=0;exitX=0.5;exitY=1;exitDx=0;exitDy=0;entryX=0.5;entryY=0;entryDx=0;entryDy=0;entryPerimeter=0;" parent="b0QggLXN9zcAGgmRZ5NT-1" source="XAcD_1vlL-8pBsXDhlGb-2" target="XAcD_1vlL-8pBsXDhlGb-1" edge="1">
          <mxGeometry width="160" relative="1" as="geometry">
            <mxPoint x="260" y="70" as="sourcePoint" />
            <mxPoint x="420" y="70" as="targetPoint" />
          </mxGeometry>
        </mxCell>
        <mxCell id="dv-Jq8858sxeqTXLYYpY-8" value="" style="endArrow=open;endFill=1;endSize=12;html=1;rounded=0;exitX=0.5;exitY=1;exitDx=0;exitDy=0;exitPerimeter=0;" parent="b0QggLXN9zcAGgmRZ5NT-1" source="XAcD_1vlL-8pBsXDhlGb-1" edge="1">
          <mxGeometry width="160" relative="1" as="geometry">
            <mxPoint x="199.5" y="140" as="sourcePoint" />
            <mxPoint x="200" y="160" as="targetPoint" />
            <Array as="points" />
          </mxGeometry>
        </mxCell>
        <mxCell id="dv-Jq8858sxeqTXLYYpY-9" value="yes" style="endArrow=open;endFill=1;endSize=12;html=1;rounded=0;entryX=0.5;entryY=0;entryDx=0;entryDy=0;entryPerimeter=0;exitX=0.5;exitY=1;exitDx=0;exitDy=0;" parent="b0QggLXN9zcAGgmRZ5NT-1" source="XAcD_1vlL-8pBsXDhlGb-3" target="dv-Jq8858sxeqTXLYYpY-1" edge="1">
          <mxGeometry x="-0.3333" y="18" width="160" relative="1" as="geometry">
            <mxPoint x="200" y="300" as="sourcePoint" />
            <mxPoint x="211.75" y="260" as="targetPoint" />
            <mxPoint as="offset" />
          </mxGeometry>
        </mxCell>
        <mxCell id="dv-Jq8858sxeqTXLYYpY-10" value="yes" style="endArrow=open;endFill=1;endSize=12;html=1;rounded=0;exitX=0.5;exitY=1;exitDx=0;exitDy=0;entryX=0.5;entryY=0;entryDx=0;entryDy=0;entryPerimeter=0;" parent="b0QggLXN9zcAGgmRZ5NT-1" source="dv-Jq8858sxeqTXLYYpY-2" target="dv-Jq8858sxeqTXLYYpY-3" edge="1">
          <mxGeometry x="-0.0075" y="-12" width="160" relative="1" as="geometry">
            <mxPoint x="189.5" y="470" as="sourcePoint" />
            <mxPoint x="189.5" y="530" as="targetPoint" />
            <Array as="points">
              <mxPoint x="202" y="480" />
            </Array>
            <mxPoint as="offset" />
          </mxGeometry>
        </mxCell>
        <mxCell id="dv-Jq8858sxeqTXLYYpY-13" style="edgeStyle=orthogonalEdgeStyle;rounded=0;orthogonalLoop=1;jettySize=auto;html=1;exitX=0.5;exitY=1;exitDx=0;exitDy=0;fontSize=14;fontColor=default;" parent="b0QggLXN9zcAGgmRZ5NT-1" edge="1">
          <mxGeometry relative="1" as="geometry">
            <mxPoint x="510" y="260" as="sourcePoint" />
            <mxPoint x="510" y="260" as="targetPoint" />
          </mxGeometry>
        </mxCell>
        <mxCell id="dv-Jq8858sxeqTXLYYpY-14" value="&lt;p style=&quot;line-height: 1.7&quot;&gt;Services&lt;br&gt;[Reated]&lt;/p&gt;" style="whiteSpace=wrap;html=1;aspect=fixed;rounded=0;shadow=0;glass=0;labelBackgroundColor=#FFFFFF;labelBorderColor=none;sketch=0;fontSize=14;fontColor=default;strokeColor=rgba(0, 0, 0, 1);strokeWidth=1;fillColor=default;gradientColor=none;" parent="b0QggLXN9zcAGgmRZ5NT-1" vertex="1">
          <mxGeometry x="470" y="480" width="80" height="80" as="geometry" />
        </mxCell>
        <mxCell id="dv-Jq8858sxeqTXLYYpY-15" value="&lt;p style=&quot;line-height: 1.7&quot;&gt;Services&lt;br&gt;[Confirmed]&lt;/p&gt;" style="whiteSpace=wrap;html=1;aspect=fixed;rounded=0;shadow=0;glass=0;labelBackgroundColor=#FFFFFF;labelBorderColor=none;sketch=0;fontSize=14;fontColor=default;strokeColor=rgba(0, 0, 0, 1);strokeWidth=1;fillColor=default;gradientColor=none;" parent="b0QggLXN9zcAGgmRZ5NT-1" vertex="1">
          <mxGeometry x="460" y="145" width="80" height="80" as="geometry" />
        </mxCell>
        <mxCell id="dv-Jq8858sxeqTXLYYpY-16" value="" style="endArrow=open;endSize=12;dashed=1;html=1;rounded=0;fontSize=14;fontColor=default;exitX=0;exitY=0.5;exitDx=0;exitDy=0;entryX=1;entryY=0.5;entryDx=0;entryDy=0;entryPerimeter=0;" parent="b0QggLXN9zcAGgmRZ5NT-1" source="dv-Jq8858sxeqTXLYYpY-15" target="dv-Jq8858sxeqTXLYYpY-0" edge="1">
          <mxGeometry width="160" relative="1" as="geometry">
            <mxPoint x="370" y="240" as="sourcePoint" />
            <mxPoint x="430" y="120" as="targetPoint" />
          </mxGeometry>
        </mxCell>
        <mxCell id="dv-Jq8858sxeqTXLYYpY-18" value="" style="endArrow=open;endFill=1;endSize=12;html=1;rounded=0;entryX=0.5;entryY=0;entryDx=0;entryDy=0;exitX=0.5;exitY=1;exitDx=0;exitDy=0;exitPerimeter=0;" parent="b0QggLXN9zcAGgmRZ5NT-1" source="dv-Jq8858sxeqTXLYYpY-1" target="dv-Jq8858sxeqTXLYYpY-2" edge="1">
          <mxGeometry width="160" relative="1" as="geometry">
            <mxPoint x="201.25" y="395" as="sourcePoint" />
            <mxPoint x="201.25" y="425" as="targetPoint" />
          </mxGeometry>
        </mxCell>
        <mxCell id="dv-Jq8858sxeqTXLYYpY-19" value="No" style="endArrow=open;endFill=1;endSize=12;html=1;rounded=0;entryX=0;entryY=0.5;entryDx=0;entryDy=0;entryPerimeter=0;exitX=0;exitY=0.5;exitDx=0;exitDy=0;" parent="b0QggLXN9zcAGgmRZ5NT-1" target="XAcD_1vlL-8pBsXDhlGb-1" edge="1" source="XAcD_1vlL-8pBsXDhlGb-3">
          <mxGeometry x="0.008" y="-9" width="160" relative="1" as="geometry">
            <mxPoint x="161.75" y="275" as="sourcePoint" />
            <mxPoint x="81.75" y="105" as="targetPoint" />
            <Array as="points">
              <mxPoint x="80" y="265" />
              <mxPoint x="80" y="105" />
              <mxPoint x="80" y="95" />
            </Array>
            <mxPoint as="offset" />
          </mxGeometry>
        </mxCell>
        <mxCell id="dv-Jq8858sxeqTXLYYpY-20" value="" style="endArrow=open;endFill=1;endSize=12;html=1;rounded=0;entryX=1;entryY=0.5;entryDx=0;entryDy=0;entryPerimeter=0;exitX=1;exitY=0.5;exitDx=0;exitDy=0;" parent="b0QggLXN9zcAGgmRZ5NT-1" source="dv-Jq8858sxeqTXLYYpY-2" target="XAcD_1vlL-8pBsXDhlGb-1" edge="1">
          <mxGeometry width="160" relative="1" as="geometry">
            <mxPoint x="411.75" y="300" as="sourcePoint" />
            <mxPoint x="367.5" y="130" as="targetPoint" />
            <Array as="points">
              <mxPoint x="320" y="430" />
              <mxPoint x="320" y="95" />
            </Array>
          </mxGeometry>
        </mxCell>
        <mxCell id="WsIFQlu_9p5Lp-gEpRrY-0" value="No" style="edgeLabel;html=1;align=center;verticalAlign=middle;resizable=0;points=[];fontSize=13;" vertex="1" connectable="0" parent="dv-Jq8858sxeqTXLYYpY-20">
          <mxGeometry x="-0.926" y="-1" relative="1" as="geometry">
            <mxPoint y="9" as="offset" />
          </mxGeometry>
        </mxCell>
        <mxCell id="dv-Jq8858sxeqTXLYYpY-21" value="" style="endArrow=open;endSize=12;dashed=1;html=1;rounded=0;fontSize=14;fontColor=default;entryX=1;entryY=0.5;entryDx=0;entryDy=0;entryPerimeter=0;exitX=0;exitY=0.5;exitDx=0;exitDy=0;" parent="b0QggLXN9zcAGgmRZ5NT-1" source="dv-Jq8858sxeqTXLYYpY-15" target="dv-Jq8858sxeqTXLYYpY-1" edge="1">
          <mxGeometry width="160" relative="1" as="geometry">
            <mxPoint x="490" y="200" as="sourcePoint" />
            <mxPoint x="292.5" y="195" as="targetPoint" />
          </mxGeometry>
        </mxCell>
        <mxCell id="dv-Jq8858sxeqTXLYYpY-22" value="" style="endArrow=open;endSize=12;dashed=1;html=1;rounded=0;fontSize=14;fontColor=default;exitX=1;exitY=0.5;exitDx=0;exitDy=0;exitPerimeter=0;" parent="b0QggLXN9zcAGgmRZ5NT-1" source="dv-Jq8858sxeqTXLYYpY-3" target="dv-Jq8858sxeqTXLYYpY-14" edge="1">
          <mxGeometry width="160" relative="1" as="geometry">
            <mxPoint x="470" y="195" as="sourcePoint" />
            <mxPoint x="304.25" y="365" as="targetPoint" />
          </mxGeometry>
        </mxCell>
        <mxCell id="dv-Jq8858sxeqTXLYYpY-23" value="" style="endArrow=open;endFill=1;endSize=12;html=1;rounded=0;exitX=0.5;exitY=1;exitDx=0;exitDy=0;exitPerimeter=0;" parent="b0QggLXN9zcAGgmRZ5NT-1" edge="1">
          <mxGeometry width="160" relative="1" as="geometry">
            <mxPoint x="204.5" y="550" as="sourcePoint" />
            <mxPoint x="205" y="590" as="targetPoint" />
          </mxGeometry>
        </mxCell>
        <mxCell id="v8cljdjWbYBeCcfQ_oQM-0" value="" style="ellipse;html=1;shape=endState;fillColor=#000000;strokeColor=#000000;rounded=0;shadow=0;glass=0;labelBackgroundColor=#FFFFFF;labelBorderColor=none;sketch=0;fontSize=15;fontColor=default;" parent="b0QggLXN9zcAGgmRZ5NT-1" vertex="1">
          <mxGeometry x="190" y="590" width="30" height="30" as="geometry" />
        </mxCell>
      </root>
    </mxGraphModel>
  </diagram>
  <diagram name="Manage order" id="ko_hyI5oavHqfkpgsBJA">
    <mxGraphModel dx="1888" dy="579" grid="1" gridSize="10" guides="1" tooltips="1" connect="1" arrows="1" fold="1" page="1" pageScale="1" pageWidth="850" pageHeight="1100" math="0" shadow="0">
      <root>
        <mxCell id="N_t8KZCiBVK5XBM3zFKJ-0" />
        <mxCell id="N_t8KZCiBVK5XBM3zFKJ-1" parent="N_t8KZCiBVK5XBM3zFKJ-0" />
        <mxCell id="SAYP95cXtW0g4xM-LkZd-0" value="&lt;b style=&quot;line-height: 1.2&quot;&gt;&lt;font style=&quot;font-size: 15px&quot;&gt;Enter Service ID&lt;/font&gt;&lt;/b&gt;" style="strokeWidth=1;html=1;shape=mxgraph.flowchart.terminator;whiteSpace=wrap;shadow=0;glass=0;sketch=0;gradientColor=none;spacingLeft=0;" parent="N_t8KZCiBVK5XBM3zFKJ-1" vertex="1">
          <mxGeometry x="117.5" y="80" width="165" height="50" as="geometry" />
        </mxCell>
        <mxCell id="SAYP95cXtW0g4xM-LkZd-1" value="" style="ellipse;whiteSpace=wrap;html=1;aspect=fixed;shadow=0;glass=0;sketch=0;strokeColor=default;strokeWidth=0;flipV=1;flipH=1;labelBackgroundColor=default;gradientColor=#ffffff;spacingLeft=0;" parent="N_t8KZCiBVK5XBM3zFKJ-1" vertex="1">
          <mxGeometry x="185" y="10" width="30" height="30" as="geometry" />
        </mxCell>
        <mxCell id="SAYP95cXtW0g4xM-LkZd-2" value="valid" style="rhombus;whiteSpace=wrap;html=1;shadow=0;glass=0;labelBackgroundColor=default;sketch=0;strokeColor=default;strokeWidth=1;perimeterSpacing=0;spacingLeft=0;" parent="N_t8KZCiBVK5XBM3zFKJ-1" vertex="1">
          <mxGeometry x="161.75" y="240" width="80" height="50" as="geometry" />
        </mxCell>
        <mxCell id="SAYP95cXtW0g4xM-LkZd-3" value="&lt;b&gt;&lt;font style=&quot;font-size: 15px&quot;&gt;Search ID&lt;/font&gt;&lt;/b&gt;" style="strokeWidth=1;html=1;shape=mxgraph.flowchart.terminator;whiteSpace=wrap;shadow=0;glass=0;sketch=0;gradientColor=none;fontSize=12;spacingLeft=0;" parent="N_t8KZCiBVK5XBM3zFKJ-1" vertex="1">
          <mxGeometry x="121" y="160" width="161.5" height="50" as="geometry" />
        </mxCell>
        <mxCell id="SAYP95cXtW0g4xM-LkZd-5" value="" style="rhombus;whiteSpace=wrap;html=1;shadow=0;glass=0;labelBackgroundColor=default;sketch=0;strokeColor=default;strokeWidth=1;perimeterSpacing=0;spacingLeft=0;" parent="N_t8KZCiBVK5XBM3zFKJ-1" vertex="1">
          <mxGeometry x="161.75" y="410" width="80" height="50" as="geometry" />
        </mxCell>
        <mxCell id="SAYP95cXtW0g4xM-LkZd-8" value="" style="endArrow=open;endFill=1;endSize=12;html=1;rounded=0;exitX=0.5;exitY=1;exitDx=0;exitDy=0;exitPerimeter=0;entryX=0.5;entryY=0;entryDx=0;entryDy=0;spacingLeft=0;" parent="N_t8KZCiBVK5XBM3zFKJ-1" source="SAYP95cXtW0g4xM-LkZd-3" target="SAYP95cXtW0g4xM-LkZd-2" edge="1">
          <mxGeometry width="160" relative="1" as="geometry">
            <mxPoint x="250" y="220" as="sourcePoint" />
            <mxPoint x="410" y="220" as="targetPoint" />
          </mxGeometry>
        </mxCell>
        <mxCell id="SAYP95cXtW0g4xM-LkZd-9" value="" style="endArrow=open;endFill=1;endSize=12;html=1;rounded=0;exitX=0.5;exitY=1;exitDx=0;exitDy=0;entryX=0.5;entryY=0;entryDx=0;entryDy=0;entryPerimeter=0;spacingLeft=0;" parent="N_t8KZCiBVK5XBM3zFKJ-1" source="SAYP95cXtW0g4xM-LkZd-1" target="SAYP95cXtW0g4xM-LkZd-0" edge="1">
          <mxGeometry width="160" relative="1" as="geometry">
            <mxPoint x="260" y="70" as="sourcePoint" />
            <mxPoint x="420" y="70" as="targetPoint" />
          </mxGeometry>
        </mxCell>
        <mxCell id="SAYP95cXtW0g4xM-LkZd-10" value="" style="endArrow=open;endFill=1;endSize=12;html=1;rounded=0;exitX=0.5;exitY=1;exitDx=0;exitDy=0;exitPerimeter=0;spacingLeft=0;" parent="N_t8KZCiBVK5XBM3zFKJ-1" source="SAYP95cXtW0g4xM-LkZd-0" edge="1">
          <mxGeometry width="160" relative="1" as="geometry">
            <mxPoint x="199.5" y="140" as="sourcePoint" />
            <mxPoint x="200" y="160" as="targetPoint" />
            <Array as="points" />
          </mxGeometry>
        </mxCell>
        <mxCell id="SAYP95cXtW0g4xM-LkZd-11" value="yes" style="endArrow=open;endFill=1;endSize=12;html=1;rounded=0;entryX=0.5;entryY=0;entryDx=0;entryDy=0;entryPerimeter=0;exitX=0.5;exitY=1;exitDx=0;exitDy=0;spacingLeft=0;" parent="N_t8KZCiBVK5XBM3zFKJ-1" source="SAYP95cXtW0g4xM-LkZd-2" target="SAYP95cXtW0g4xM-LkZd-4" edge="1">
          <mxGeometry x="-0.5" y="18" width="160" relative="1" as="geometry">
            <mxPoint x="200" y="300" as="sourcePoint" />
            <mxPoint x="211.75" y="260" as="targetPoint" />
            <mxPoint as="offset" />
          </mxGeometry>
        </mxCell>
        <mxCell id="SAYP95cXtW0g4xM-LkZd-12" value="[Edit]" style="endArrow=open;endFill=1;endSize=12;html=1;rounded=0;spacingLeft=0;exitX=0;exitY=0.5;exitDx=0;exitDy=0;entryX=0.5;entryY=0;entryDx=0;entryDy=0;entryPerimeter=0;fontSize=13;" parent="N_t8KZCiBVK5XBM3zFKJ-1" source="SAYP95cXtW0g4xM-LkZd-5" edge="1">
          <mxGeometry x="-0.0015" y="-15" width="160" relative="1" as="geometry">
            <mxPoint x="121" y="435" as="sourcePoint" />
            <mxPoint x="42.5" y="480" as="targetPoint" />
            <Array as="points">
              <mxPoint x="43" y="435" />
            </Array>
            <mxPoint as="offset" />
          </mxGeometry>
        </mxCell>
        <mxCell id="SAYP95cXtW0g4xM-LkZd-13" style="edgeStyle=orthogonalEdgeStyle;rounded=0;orthogonalLoop=1;jettySize=auto;html=1;exitX=0.5;exitY=1;exitDx=0;exitDy=0;fontSize=14;fontColor=default;spacingLeft=0;" parent="N_t8KZCiBVK5XBM3zFKJ-1" edge="1">
          <mxGeometry relative="1" as="geometry">
            <mxPoint x="510" y="260" as="sourcePoint" />
            <mxPoint x="510" y="260" as="targetPoint" />
          </mxGeometry>
        </mxCell>
        <mxCell id="SAYP95cXtW0g4xM-LkZd-14" value="&lt;p style=&quot;line-height: 1.7&quot;&gt;Services&lt;br&gt;[canceled]&lt;/p&gt;" style="whiteSpace=wrap;html=1;aspect=fixed;rounded=0;shadow=0;glass=0;labelBackgroundColor=#FFFFFF;labelBorderColor=none;sketch=0;fontSize=14;fontColor=default;strokeColor=rgba(0, 0, 0, 1);strokeWidth=1;fillColor=default;gradientColor=none;" parent="N_t8KZCiBVK5XBM3zFKJ-1" vertex="1">
          <mxGeometry x="440" y="600" width="80" height="80" as="geometry" />
        </mxCell>
        <mxCell id="SAYP95cXtW0g4xM-LkZd-15" value="&lt;p style=&quot;line-height: 1.7&quot;&gt;Services&lt;br&gt;[Confirmed]&lt;/p&gt;" style="whiteSpace=wrap;html=1;aspect=fixed;rounded=0;shadow=0;glass=0;labelBackgroundColor=#FFFFFF;labelBorderColor=none;sketch=0;fontSize=14;fontColor=default;strokeColor=rgba(0, 0, 0, 1);strokeWidth=1;fillColor=default;gradientColor=none;spacingLeft=0;" parent="N_t8KZCiBVK5XBM3zFKJ-1" vertex="1">
          <mxGeometry x="460" y="145" width="80" height="80" as="geometry" />
        </mxCell>
        <mxCell id="SAYP95cXtW0g4xM-LkZd-16" value="" style="endArrow=open;endSize=12;dashed=1;html=1;rounded=0;fontSize=14;fontColor=default;exitX=0;exitY=0.5;exitDx=0;exitDy=0;entryX=1;entryY=0.5;entryDx=0;entryDy=0;entryPerimeter=0;spacingLeft=0;" parent="N_t8KZCiBVK5XBM3zFKJ-1" source="SAYP95cXtW0g4xM-LkZd-15" target="SAYP95cXtW0g4xM-LkZd-3" edge="1">
          <mxGeometry width="160" relative="1" as="geometry">
            <mxPoint x="370" y="240" as="sourcePoint" />
            <mxPoint x="430" y="120" as="targetPoint" />
          </mxGeometry>
        </mxCell>
        <mxCell id="SAYP95cXtW0g4xM-LkZd-17" value="" style="endArrow=open;endFill=1;endSize=12;html=1;rounded=0;entryX=0.5;entryY=0;entryDx=0;entryDy=0;exitX=0.5;exitY=1;exitDx=0;exitDy=0;exitPerimeter=0;spacingLeft=0;" parent="N_t8KZCiBVK5XBM3zFKJ-1" source="SAYP95cXtW0g4xM-LkZd-4" target="SAYP95cXtW0g4xM-LkZd-5" edge="1">
          <mxGeometry width="160" relative="1" as="geometry">
            <mxPoint x="201.25" y="395" as="sourcePoint" />
            <mxPoint x="201.25" y="425" as="targetPoint" />
          </mxGeometry>
        </mxCell>
        <mxCell id="SAYP95cXtW0g4xM-LkZd-18" value="No" style="endArrow=open;endFill=1;endSize=12;html=1;rounded=0;entryX=0;entryY=0.5;entryDx=0;entryDy=0;entryPerimeter=0;spacingLeft=0;exitX=0;exitY=0.5;exitDx=0;exitDy=0;" parent="N_t8KZCiBVK5XBM3zFKJ-1" target="SAYP95cXtW0g4xM-LkZd-0" edge="1" source="SAYP95cXtW0g4xM-LkZd-2">
          <mxGeometry x="0.0073" y="-19" width="160" relative="1" as="geometry">
            <mxPoint x="161.75" y="275" as="sourcePoint" />
            <mxPoint x="81.75" y="105" as="targetPoint" />
            <Array as="points">
              <mxPoint x="80" y="265" />
              <mxPoint x="80" y="105" />
            </Array>
            <mxPoint as="offset" />
          </mxGeometry>
        </mxCell>
        <mxCell id="SAYP95cXtW0g4xM-LkZd-20" value="" style="endArrow=open;endSize=12;dashed=1;html=1;rounded=0;fontSize=14;fontColor=default;entryX=1;entryY=0;entryDx=0;entryDy=0;exitX=0.5;exitY=1;exitDx=0;exitDy=0;spacingLeft=0;exitPerimeter=0;" parent="N_t8KZCiBVK5XBM3zFKJ-1" target="SAYP95cXtW0g4xM-LkZd-32" edge="1">
          <mxGeometry width="160" relative="1" as="geometry">
            <mxPoint x="42.5" y="545" as="sourcePoint" />
            <mxPoint x="292.5" y="195" as="targetPoint" />
          </mxGeometry>
        </mxCell>
        <mxCell id="SAYP95cXtW0g4xM-LkZd-22" value="" style="endArrow=open;endFill=1;endSize=12;html=1;rounded=0;exitX=1;exitY=0.5;exitDx=0;exitDy=0;spacingLeft=0;entryX=0.5;entryY=0;entryDx=0;entryDy=0;entryPerimeter=0;" parent="N_t8KZCiBVK5XBM3zFKJ-1" source="SAYP95cXtW0g4xM-LkZd-5" target="SAYP95cXtW0g4xM-LkZd-23" edge="1">
          <mxGeometry width="160" relative="1" as="geometry">
            <mxPoint x="204.5" y="550" as="sourcePoint" />
            <mxPoint x="205" y="590" as="targetPoint" />
            <Array as="points">
              <mxPoint x="365" y="435" />
            </Array>
          </mxGeometry>
        </mxCell>
        <mxCell id="6IVsGtzzmcIHIJtL715E-0" value="[cancel]" style="edgeLabel;html=1;align=center;verticalAlign=middle;resizable=0;points=[];fontSize=13;" vertex="1" connectable="0" parent="SAYP95cXtW0g4xM-LkZd-22">
          <mxGeometry x="-0.3932" y="4" relative="1" as="geometry">
            <mxPoint x="2" y="-11" as="offset" />
          </mxGeometry>
        </mxCell>
        <mxCell id="SAYP95cXtW0g4xM-LkZd-23" value="&lt;b&gt;&lt;font style=&quot;font-size: 15px&quot;&gt;cancel service&lt;br&gt;&lt;br&gt;do/Delete Service&lt;br&gt;&lt;/font&gt;&lt;/b&gt;" style="strokeWidth=1;html=1;shape=mxgraph.flowchart.terminator;whiteSpace=wrap;shadow=0;glass=0;sketch=0;gradientColor=none;spacingLeft=0;" parent="N_t8KZCiBVK5XBM3zFKJ-1" vertex="1">
          <mxGeometry x="250" y="480" width="230" height="70" as="geometry" />
        </mxCell>
        <mxCell id="SAYP95cXtW0g4xM-LkZd-26" value="" style="endArrow=open;endFill=1;endSize=12;html=1;rounded=0;exitX=0.5;exitY=1;exitDx=0;exitDy=0;spacingLeft=0;exitPerimeter=0;entryX=0.5;entryY=0;entryDx=0;entryDy=0;" parent="N_t8KZCiBVK5XBM3zFKJ-1" edge="1">
          <mxGeometry width="160" relative="1" as="geometry">
            <mxPoint x="42.5" y="545" as="sourcePoint" />
            <mxPoint x="42.5" y="600" as="targetPoint" />
          </mxGeometry>
        </mxCell>
        <mxCell id="SAYP95cXtW0g4xM-LkZd-27" value="" style="endArrow=open;endFill=1;endSize=12;html=1;rounded=0;entryX=0.5;entryY=0;entryDx=0;entryDy=0;entryPerimeter=0;exitX=0.5;exitY=1;exitDx=0;exitDy=0;spacingLeft=0;startArrow=none;" parent="N_t8KZCiBVK5XBM3zFKJ-1" source="SAYP95cXtW0g4xM-LkZd-4" edge="1">
          <mxGeometry width="160" relative="1" as="geometry">
            <mxPoint x="221.75" y="320" as="sourcePoint" />
            <mxPoint x="221.75" y="350" as="targetPoint" />
          </mxGeometry>
        </mxCell>
        <mxCell id="SAYP95cXtW0g4xM-LkZd-4" value="&lt;b&gt;&lt;font style=&quot;font-size: 15px&quot;&gt;Deal With Order&lt;/font&gt;&lt;/b&gt;" style="strokeWidth=1;html=1;shape=mxgraph.flowchart.terminator;whiteSpace=wrap;shadow=0;glass=0;sketch=0;gradientColor=none;spacingLeft=0;" parent="N_t8KZCiBVK5XBM3zFKJ-1" vertex="1">
          <mxGeometry x="109.25" y="330" width="185" height="50" as="geometry" />
        </mxCell>
        <mxCell id="SAYP95cXtW0g4xM-LkZd-30" value="" style="endArrow=open;endFill=1;endSize=12;html=1;rounded=0;entryX=0.5;entryY=0;entryDx=0;entryDy=0;exitX=0.5;exitY=1;exitDx=0;exitDy=0;spacingLeft=0;exitPerimeter=0;" parent="N_t8KZCiBVK5XBM3zFKJ-1" source="SAYP95cXtW0g4xM-LkZd-23" edge="1" target="3zZxTnDf9tjzDIq3mu0G-1">
          <mxGeometry width="160" relative="1" as="geometry">
            <mxPoint x="310" y="560" as="sourcePoint" />
            <mxPoint x="362.5" y="600" as="targetPoint" />
          </mxGeometry>
        </mxCell>
        <mxCell id="SAYP95cXtW0g4xM-LkZd-31" value="" style="endArrow=open;endSize=12;dashed=1;html=1;rounded=0;fontSize=14;fontColor=default;entryX=0;entryY=0;entryDx=0;entryDy=0;exitX=0.5;exitY=1;exitDx=0;exitDy=0;spacingLeft=0;exitPerimeter=0;" parent="N_t8KZCiBVK5XBM3zFKJ-1" source="SAYP95cXtW0g4xM-LkZd-23" target="SAYP95cXtW0g4xM-LkZd-14" edge="1">
          <mxGeometry width="160" relative="1" as="geometry">
            <mxPoint x="284.63" y="580" as="sourcePoint" />
            <mxPoint x="118.88" y="750" as="targetPoint" />
          </mxGeometry>
        </mxCell>
        <mxCell id="SAYP95cXtW0g4xM-LkZd-32" value="&lt;p style=&quot;line-height: 1.7&quot;&gt;Services&lt;br&gt;[Updated]&lt;/p&gt;" style="whiteSpace=wrap;html=1;aspect=fixed;rounded=0;shadow=0;glass=0;labelBackgroundColor=#FFFFFF;labelBorderColor=none;sketch=0;fontSize=14;fontColor=default;strokeColor=rgba(0, 0, 0, 1);strokeWidth=1;fillColor=default;gradientColor=none;" parent="N_t8KZCiBVK5XBM3zFKJ-1" vertex="1">
          <mxGeometry x="-120" y="600" width="80" height="80" as="geometry" />
        </mxCell>
        <mxCell id="3zZxTnDf9tjzDIq3mu0G-0" value="" style="ellipse;html=1;shape=endState;fillColor=#000000;strokeColor=#000000;rounded=0;shadow=0;glass=0;labelBackgroundColor=#FFFFFF;labelBorderColor=none;sketch=0;fontSize=15;fontColor=default;" parent="N_t8KZCiBVK5XBM3zFKJ-1" vertex="1">
          <mxGeometry x="27.5" y="600" width="30" height="30" as="geometry" />
        </mxCell>
        <mxCell id="3zZxTnDf9tjzDIq3mu0G-1" value="" style="ellipse;html=1;shape=endState;fillColor=#000000;strokeColor=#000000;rounded=0;shadow=0;glass=0;labelBackgroundColor=#FFFFFF;labelBorderColor=none;sketch=0;fontSize=15;fontColor=default;" parent="N_t8KZCiBVK5XBM3zFKJ-1" vertex="1">
          <mxGeometry x="350" y="600" width="30" height="30" as="geometry" />
        </mxCell>
        <mxCell id="EXXmCRgLyTa1QRcNySow-0" value="" style="line;strokeWidth=1;fillColor=none;align=left;verticalAlign=middle;spacingTop=-1;spacingLeft=3;spacingRight=3;rotatable=0;labelPosition=right;points=[];portConstraint=eastwest;fontSize=13;" vertex="1" parent="N_t8KZCiBVK5XBM3zFKJ-1">
          <mxGeometry x="310" y="508.5" width="130" height="8" as="geometry" />
        </mxCell>
        <mxCell id="EXXmCRgLyTa1QRcNySow-2" value="&lt;b&gt;&lt;font style=&quot;font-size: 15px&quot;&gt;change service info&lt;br&gt;&lt;br&gt;do/Display Service details&lt;br&gt;&lt;/font&gt;&lt;/b&gt;" style="strokeWidth=1;html=1;shape=mxgraph.flowchart.terminator;whiteSpace=wrap;shadow=0;glass=0;sketch=0;gradientColor=none;spacingLeft=0;" vertex="1" parent="N_t8KZCiBVK5XBM3zFKJ-1">
          <mxGeometry x="-72.5" y="477.5" width="230" height="70" as="geometry" />
        </mxCell>
        <mxCell id="EXXmCRgLyTa1QRcNySow-3" value="" style="line;strokeWidth=1;fillColor=none;align=left;verticalAlign=middle;spacingTop=-1;spacingLeft=3;spacingRight=3;rotatable=0;labelPosition=right;points=[];portConstraint=eastwest;fontSize=13;" vertex="1" parent="N_t8KZCiBVK5XBM3zFKJ-1">
          <mxGeometry x="-20.75" y="511" width="130" height="8" as="geometry" />
        </mxCell>
      </root>
    </mxGraphModel>
  </diagram>
  <diagram name="Maintenence" id="qJ6mB82yMb3jVxj7R7XK">
    <mxGraphModel dx="1038" dy="579" grid="1" gridSize="10" guides="1" tooltips="1" connect="1" arrows="1" fold="1" page="1" pageScale="1" pageWidth="850" pageHeight="1100" math="0" shadow="0">
      <root>
        <mxCell id="ZwOG00JlN9IAfpsnJ3Wa-0" />
        <mxCell id="ZwOG00JlN9IAfpsnJ3Wa-1" parent="ZwOG00JlN9IAfpsnJ3Wa-0" />
        <mxCell id="pjKoRONGiJRXLThuw6O9-0" value="&lt;b style=&quot;line-height: 1.2&quot;&gt;&lt;font style=&quot;font-size: 15px&quot;&gt;Choose Service&lt;/font&gt;&lt;/b&gt;" style="strokeWidth=1;html=1;shape=mxgraph.flowchart.terminator;whiteSpace=wrap;shadow=0;glass=0;sketch=0;gradientColor=none;" parent="ZwOG00JlN9IAfpsnJ3Wa-1" vertex="1">
          <mxGeometry x="117.5" y="80" width="165" height="50" as="geometry" />
        </mxCell>
        <mxCell id="pjKoRONGiJRXLThuw6O9-1" value="" style="ellipse;whiteSpace=wrap;html=1;aspect=fixed;shadow=0;glass=0;sketch=0;strokeColor=default;strokeWidth=0;flipV=1;flipH=1;labelBackgroundColor=default;gradientColor=#ffffff;" parent="ZwOG00JlN9IAfpsnJ3Wa-1" vertex="1">
          <mxGeometry x="185" y="10" width="30" height="30" as="geometry" />
        </mxCell>
        <mxCell id="pjKoRONGiJRXLThuw6O9-3" value="&lt;b&gt;&lt;font style=&quot;font-size: 15px&quot;&gt;Write Details&lt;/font&gt;&lt;/b&gt;" style="strokeWidth=1;html=1;shape=mxgraph.flowchart.terminator;whiteSpace=wrap;shadow=0;glass=0;sketch=0;gradientColor=none;fontSize=12;" parent="ZwOG00JlN9IAfpsnJ3Wa-1" vertex="1">
          <mxGeometry x="121" y="160" width="161.5" height="50" as="geometry" />
        </mxCell>
        <mxCell id="pjKoRONGiJRXLThuw6O9-4" value="&lt;b&gt;&lt;font style=&quot;font-size: 15px&quot;&gt;Make an Appointment&lt;/font&gt;&lt;/b&gt;" style="strokeWidth=1;html=1;shape=mxgraph.flowchart.terminator;whiteSpace=wrap;shadow=0;glass=0;sketch=0;gradientColor=none;" parent="ZwOG00JlN9IAfpsnJ3Wa-1" vertex="1">
          <mxGeometry x="109.25" y="330" width="185" height="50" as="geometry" />
        </mxCell>
        <mxCell id="pjKoRONGiJRXLThuw6O9-5" value="valid" style="rhombus;whiteSpace=wrap;html=1;shadow=0;glass=0;labelBackgroundColor=default;sketch=0;strokeColor=default;strokeWidth=1;perimeterSpacing=0;" parent="ZwOG00JlN9IAfpsnJ3Wa-1" vertex="1">
          <mxGeometry x="161.75" y="425" width="80" height="50" as="geometry" />
        </mxCell>
        <mxCell id="pjKoRONGiJRXLThuw6O9-6" value="&lt;b&gt;&lt;font style=&quot;font-size: 15px&quot;&gt;Generate service ID&lt;/font&gt;&lt;/b&gt;" style="strokeWidth=1;html=1;shape=mxgraph.flowchart.terminator;whiteSpace=wrap;shadow=0;glass=0;sketch=0;gradientColor=none;" parent="ZwOG00JlN9IAfpsnJ3Wa-1" vertex="1">
          <mxGeometry x="109.25" y="525" width="185" height="50" as="geometry" />
        </mxCell>
        <mxCell id="pjKoRONGiJRXLThuw6O9-8" value="" style="endArrow=open;endFill=1;endSize=12;html=1;rounded=0;exitX=0.5;exitY=1;exitDx=0;exitDy=0;exitPerimeter=0;entryX=0.5;entryY=0;entryDx=0;entryDy=0;" parent="ZwOG00JlN9IAfpsnJ3Wa-1" source="pjKoRONGiJRXLThuw6O9-3" edge="1">
          <mxGeometry width="160" relative="1" as="geometry">
            <mxPoint x="250" y="220" as="sourcePoint" />
            <mxPoint x="201.75" y="250" as="targetPoint" />
          </mxGeometry>
        </mxCell>
        <mxCell id="pjKoRONGiJRXLThuw6O9-9" value="" style="endArrow=open;endFill=1;endSize=12;html=1;rounded=0;exitX=0.5;exitY=1;exitDx=0;exitDy=0;entryX=0.5;entryY=0;entryDx=0;entryDy=0;entryPerimeter=0;" parent="ZwOG00JlN9IAfpsnJ3Wa-1" source="pjKoRONGiJRXLThuw6O9-1" target="pjKoRONGiJRXLThuw6O9-0" edge="1">
          <mxGeometry width="160" relative="1" as="geometry">
            <mxPoint x="260" y="70" as="sourcePoint" />
            <mxPoint x="420" y="70" as="targetPoint" />
          </mxGeometry>
        </mxCell>
        <mxCell id="pjKoRONGiJRXLThuw6O9-10" value="" style="endArrow=open;endFill=1;endSize=12;html=1;rounded=0;exitX=0.5;exitY=1;exitDx=0;exitDy=0;exitPerimeter=0;" parent="ZwOG00JlN9IAfpsnJ3Wa-1" source="pjKoRONGiJRXLThuw6O9-0" edge="1">
          <mxGeometry width="160" relative="1" as="geometry">
            <mxPoint x="199.5" y="140" as="sourcePoint" />
            <mxPoint x="200" y="160" as="targetPoint" />
            <Array as="points" />
          </mxGeometry>
        </mxCell>
        <mxCell id="pjKoRONGiJRXLThuw6O9-11" value="" style="endArrow=open;endFill=1;endSize=12;html=1;rounded=0;entryX=0.5;entryY=0;entryDx=0;entryDy=0;entryPerimeter=0;exitX=0.5;exitY=1;exitDx=0;exitDy=0;" parent="ZwOG00JlN9IAfpsnJ3Wa-1" target="pjKoRONGiJRXLThuw6O9-4" edge="1">
          <mxGeometry width="160" relative="1" as="geometry">
            <mxPoint x="201.75" y="300" as="sourcePoint" />
            <mxPoint x="211.75" y="260" as="targetPoint" />
          </mxGeometry>
        </mxCell>
        <mxCell id="pjKoRONGiJRXLThuw6O9-13" style="edgeStyle=orthogonalEdgeStyle;rounded=0;orthogonalLoop=1;jettySize=auto;html=1;exitX=0.5;exitY=1;exitDx=0;exitDy=0;fontSize=14;fontColor=default;" parent="ZwOG00JlN9IAfpsnJ3Wa-1" edge="1">
          <mxGeometry relative="1" as="geometry">
            <mxPoint x="510" y="260" as="sourcePoint" />
            <mxPoint x="510" y="260" as="targetPoint" />
          </mxGeometry>
        </mxCell>
        <mxCell id="pjKoRONGiJRXLThuw6O9-15" value="&lt;p style=&quot;line-height: 1.7&quot;&gt;Services&lt;br&gt;[unConfirmed]&lt;/p&gt;" style="whiteSpace=wrap;html=1;aspect=fixed;rounded=0;shadow=0;glass=0;labelBackgroundColor=#FFFFFF;labelBorderColor=none;sketch=0;fontSize=14;fontColor=default;strokeColor=rgba(0, 0, 0, 1);strokeWidth=1;fillColor=default;gradientColor=none;" parent="ZwOG00JlN9IAfpsnJ3Wa-1" vertex="1">
          <mxGeometry x="450" y="135" width="100" height="100" as="geometry" />
        </mxCell>
        <mxCell id="pjKoRONGiJRXLThuw6O9-16" value="" style="endArrow=open;endSize=12;dashed=1;html=1;rounded=0;fontSize=14;fontColor=default;entryX=0;entryY=0.5;entryDx=0;entryDy=0;exitX=1;exitY=0.5;exitDx=0;exitDy=0;exitPerimeter=0;" parent="ZwOG00JlN9IAfpsnJ3Wa-1" source="pjKoRONGiJRXLThuw6O9-3" target="pjKoRONGiJRXLThuw6O9-15" edge="1">
          <mxGeometry width="160" relative="1" as="geometry">
            <mxPoint x="380" y="270" as="sourcePoint" />
            <mxPoint x="430" y="120" as="targetPoint" />
          </mxGeometry>
        </mxCell>
        <mxCell id="pjKoRONGiJRXLThuw6O9-17" value="" style="endArrow=open;endFill=1;endSize=12;html=1;rounded=0;entryX=0.5;entryY=0;entryDx=0;entryDy=0;exitX=0.5;exitY=1;exitDx=0;exitDy=0;exitPerimeter=0;" parent="ZwOG00JlN9IAfpsnJ3Wa-1" source="pjKoRONGiJRXLThuw6O9-4" target="pjKoRONGiJRXLThuw6O9-5" edge="1">
          <mxGeometry width="160" relative="1" as="geometry">
            <mxPoint x="201.25" y="395" as="sourcePoint" />
            <mxPoint x="201.25" y="425" as="targetPoint" />
          </mxGeometry>
        </mxCell>
        <mxCell id="pjKoRONGiJRXLThuw6O9-19" value="No" style="endArrow=open;endFill=1;endSize=12;html=1;rounded=0;entryX=0;entryY=0.5;entryDx=0;entryDy=0;entryPerimeter=0;exitX=0;exitY=0.5;exitDx=0;exitDy=0;" parent="ZwOG00JlN9IAfpsnJ3Wa-1" source="pjKoRONGiJRXLThuw6O9-5" target="pjKoRONGiJRXLThuw6O9-4" edge="1">
          <mxGeometry width="160" relative="1" as="geometry">
            <mxPoint x="411.75" y="300" as="sourcePoint" />
            <mxPoint x="367.5" y="130" as="targetPoint" />
            <Array as="points">
              <mxPoint x="80" y="450" />
              <mxPoint x="80" y="355" />
            </Array>
          </mxGeometry>
        </mxCell>
        <mxCell id="pjKoRONGiJRXLThuw6O9-21" value="" style="endArrow=open;endSize=12;dashed=1;html=1;rounded=0;fontSize=14;fontColor=default;exitX=1;exitY=0.5;exitDx=0;exitDy=0;exitPerimeter=0;entryX=0;entryY=0.5;entryDx=0;entryDy=0;" parent="ZwOG00JlN9IAfpsnJ3Wa-1" source="pjKoRONGiJRXLThuw6O9-6" target="pjKoRONGiJRXLThuw6O9-25" edge="1">
          <mxGeometry width="160" relative="1" as="geometry">
            <mxPoint x="470" y="195" as="sourcePoint" />
            <mxPoint x="470" y="520.9269988412514" as="targetPoint" />
          </mxGeometry>
        </mxCell>
        <mxCell id="pjKoRONGiJRXLThuw6O9-22" value="" style="endArrow=open;endFill=1;endSize=12;html=1;rounded=0;exitX=0.5;exitY=1;exitDx=0;exitDy=0;exitPerimeter=0;entryX=0.5;entryY=0;entryDx=0;entryDy=0;" parent="ZwOG00JlN9IAfpsnJ3Wa-1" edge="1" target="pjKoRONGiJRXLThuw6O9-23" source="pjKoRONGiJRXLThuw6O9-6">
          <mxGeometry width="160" relative="1" as="geometry">
            <mxPoint x="204.5" y="550" as="sourcePoint" />
            <mxPoint x="205" y="590" as="targetPoint" />
          </mxGeometry>
        </mxCell>
        <mxCell id="pjKoRONGiJRXLThuw6O9-23" value="" style="ellipse;html=1;shape=endState;fillColor=#000000;strokeColor=#000000;rounded=0;shadow=0;glass=0;labelBackgroundColor=#FFFFFF;labelBorderColor=none;sketch=0;fontSize=15;fontColor=default;" parent="ZwOG00JlN9IAfpsnJ3Wa-1" vertex="1">
          <mxGeometry x="186.75" y="630" width="30" height="30" as="geometry" />
        </mxCell>
        <mxCell id="pjKoRONGiJRXLThuw6O9-24" value="&lt;span style=&quot;font-size: 15px&quot;&gt;&lt;b&gt;Write Location&lt;/b&gt;&lt;/span&gt;" style="strokeWidth=1;html=1;shape=mxgraph.flowchart.terminator;whiteSpace=wrap;shadow=0;glass=0;sketch=0;gradientColor=none;fontSize=12;" parent="ZwOG00JlN9IAfpsnJ3Wa-1" vertex="1">
          <mxGeometry x="119.25" y="250" width="161.5" height="50" as="geometry" />
        </mxCell>
        <mxCell id="pjKoRONGiJRXLThuw6O9-25" value="&lt;p style=&quot;line-height: 1.7&quot;&gt;Services&lt;br&gt;[Confirmed]&lt;/p&gt;" style="whiteSpace=wrap;html=1;aspect=fixed;rounded=0;shadow=0;glass=0;labelBackgroundColor=#FFFFFF;labelBorderColor=none;sketch=0;fontSize=14;fontColor=default;strokeColor=rgba(0, 0, 0, 1);strokeWidth=1;fillColor=default;gradientColor=none;" parent="ZwOG00JlN9IAfpsnJ3Wa-1" vertex="1">
          <mxGeometry x="470" y="500" width="100" height="100" as="geometry" />
        </mxCell>
        <mxCell id="k7BEy4Ii1fwIPwwFzpMf-1" value="yes" style="endArrow=open;endFill=1;endSize=12;html=1;rounded=0;entryX=0.5;entryY=0;entryDx=0;entryDy=0;exitX=0.5;exitY=1;exitDx=0;exitDy=0;entryPerimeter=0;" edge="1" parent="ZwOG00JlN9IAfpsnJ3Wa-1" source="pjKoRONGiJRXLThuw6O9-5" target="pjKoRONGiJRXLThuw6O9-6">
          <mxGeometry y="18" width="160" relative="1" as="geometry">
            <mxPoint x="211.75" y="390" as="sourcePoint" />
            <mxPoint x="211.75" y="435" as="targetPoint" />
            <mxPoint as="offset" />
          </mxGeometry>
        </mxCell>
      </root>
    </mxGraphModel>
  </diagram>
  <diagram id="XqEc1qlB_4jy2PRk6uaP" name="class">
    <mxGraphModel dx="1038" dy="579" grid="1" gridSize="10" guides="1" tooltips="1" connect="1" arrows="1" fold="1" page="1" pageScale="1" pageWidth="850" pageHeight="1100" math="0" shadow="0">
      <root>
        <mxCell id="Jy8FBLsH5X0j3uAHUraW-0" />
        <mxCell id="Jy8FBLsH5X0j3uAHUraW-1" parent="Jy8FBLsH5X0j3uAHUraW-0" />
        <mxCell id="OI4hxTIJySu8GPAiDE6H-0" value="New User" style="swimlane;fontStyle=1;align=center;verticalAlign=top;childLayout=stackLayout;horizontal=1;startSize=26;horizontalStack=0;resizeParent=1;resizeParentMax=0;resizeLast=0;collapsible=1;marginBottom=0;fontSize=13;" vertex="1" parent="Jy8FBLsH5X0j3uAHUraW-1">
          <mxGeometry x="90" y="60" width="160" height="260" as="geometry" />
        </mxCell>
        <mxCell id="OI4hxTIJySu8GPAiDE6H-1" value="First Name&#xa;Last Name&#xa;E-Mail&#xa;Password&#xa;Country&#xa;City &#xa;Address&#xa;Phone" style="text;strokeColor=none;fillColor=none;align=left;verticalAlign=top;spacingLeft=4;spacingRight=4;overflow=hidden;rotatable=0;points=[[0,0.5],[1,0.5]];portConstraint=eastwest;fontSize=13;" vertex="1" parent="OI4hxTIJySu8GPAiDE6H-0">
          <mxGeometry y="26" width="160" height="144" as="geometry" />
        </mxCell>
        <mxCell id="OI4hxTIJySu8GPAiDE6H-2" value="" style="line;strokeWidth=1;fillColor=none;align=left;verticalAlign=middle;spacingTop=-1;spacingLeft=3;spacingRight=3;rotatable=0;labelPosition=right;points=[];portConstraint=eastwest;fontSize=13;" vertex="1" parent="OI4hxTIJySu8GPAiDE6H-0">
          <mxGeometry y="170" width="160" height="8" as="geometry" />
        </mxCell>
        <mxCell id="OI4hxTIJySu8GPAiDE6H-3" value="Register()&#xa;Login()&#xa;Logout()" style="text;strokeColor=none;fillColor=none;align=left;verticalAlign=top;spacingLeft=4;spacingRight=4;overflow=hidden;rotatable=0;points=[[0,0.5],[1,0.5]];portConstraint=eastwest;fontSize=13;" vertex="1" parent="OI4hxTIJySu8GPAiDE6H-0">
          <mxGeometry y="178" width="160" height="82" as="geometry" />
        </mxCell>
        <mxCell id="XCoRXHKkREuJSzWgW9q9-0" value="worker" style="swimlane;fontStyle=1;align=center;verticalAlign=top;childLayout=stackLayout;horizontal=1;startSize=26;horizontalStack=0;resizeParent=1;resizeParentMax=0;resizeLast=0;collapsible=1;marginBottom=0;fontSize=13;" vertex="1" parent="Jy8FBLsH5X0j3uAHUraW-1">
          <mxGeometry x="90" y="372" width="160" height="98" as="geometry" />
        </mxCell>
        <mxCell id="XCoRXHKkREuJSzWgW9q9-1" value="Worker_Id&#xa;Service_type&#xa;Discount " style="text;strokeColor=none;fillColor=none;align=left;verticalAlign=top;spacingLeft=4;spacingRight=4;overflow=hidden;rotatable=0;points=[[0,0.5],[1,0.5]];portConstraint=eastwest;fontSize=13;" vertex="1" parent="XCoRXHKkREuJSzWgW9q9-0">
          <mxGeometry y="26" width="160" height="64" as="geometry" />
        </mxCell>
        <mxCell id="XCoRXHKkREuJSzWgW9q9-2" value="" style="line;strokeWidth=1;fillColor=none;align=left;verticalAlign=middle;spacingTop=-1;spacingLeft=3;spacingRight=3;rotatable=0;labelPosition=right;points=[];portConstraint=eastwest;fontSize=13;" vertex="1" parent="XCoRXHKkREuJSzWgW9q9-0">
          <mxGeometry y="90" width="160" height="8" as="geometry" />
        </mxCell>
        <mxCell id="XCoRXHKkREuJSzWgW9q9-4" value="Registered" style="swimlane;fontStyle=1;align=center;verticalAlign=top;childLayout=stackLayout;horizontal=1;startSize=26;horizontalStack=0;resizeParent=1;resizeParentMax=0;resizeLast=0;collapsible=1;marginBottom=0;fontSize=13;" vertex="1" parent="Jy8FBLsH5X0j3uAHUraW-1">
          <mxGeometry x="340" y="70" width="160" height="160" as="geometry" />
        </mxCell>
        <mxCell id="XCoRXHKkREuJSzWgW9q9-5" value="Registered_Id" style="text;strokeColor=none;fillColor=none;align=left;verticalAlign=top;spacingLeft=4;spacingRight=4;overflow=hidden;rotatable=0;points=[[0,0.5],[1,0.5]];portConstraint=eastwest;fontSize=13;" vertex="1" parent="XCoRXHKkREuJSzWgW9q9-4">
          <mxGeometry y="26" width="160" height="34" as="geometry" />
        </mxCell>
        <mxCell id="XCoRXHKkREuJSzWgW9q9-6" value="" style="line;strokeWidth=1;fillColor=none;align=left;verticalAlign=middle;spacingTop=-1;spacingLeft=3;spacingRight=3;rotatable=0;labelPosition=right;points=[];portConstraint=eastwest;fontSize=13;" vertex="1" parent="XCoRXHKkREuJSzWgW9q9-4">
          <mxGeometry y="60" width="160" height="8" as="geometry" />
        </mxCell>
        <mxCell id="XCoRXHKkREuJSzWgW9q9-7" value="Ask_clean()&#xa;Ask _maintenence()&#xa;update()&#xa;cancel()&#xa;Rate()" style="text;strokeColor=none;fillColor=none;align=left;verticalAlign=top;spacingLeft=4;spacingRight=4;overflow=hidden;rotatable=0;points=[[0,0.5],[1,0.5]];portConstraint=eastwest;fontSize=13;" vertex="1" parent="XCoRXHKkREuJSzWgW9q9-4">
          <mxGeometry y="68" width="160" height="92" as="geometry" />
        </mxCell>
        <mxCell id="XCoRXHKkREuJSzWgW9q9-8" value="" style="endArrow=block;endSize=16;endFill=0;html=1;rounded=0;fontSize=13;strokeWidth=1;exitX=1;exitY=0.5;exitDx=0;exitDy=0;" edge="1" parent="Jy8FBLsH5X0j3uAHUraW-1" source="OI4hxTIJySu8GPAiDE6H-1">
          <mxGeometry width="160" relative="1" as="geometry">
            <mxPoint x="260" y="180" as="sourcePoint" />
            <mxPoint x="340" y="158" as="targetPoint" />
          </mxGeometry>
        </mxCell>
        <mxCell id="XCoRXHKkREuJSzWgW9q9-9" value="" style="endArrow=block;endSize=16;endFill=0;html=1;rounded=0;fontSize=13;strokeWidth=1;exitX=0.5;exitY=0;exitDx=0;exitDy=0;" edge="1" parent="Jy8FBLsH5X0j3uAHUraW-1" source="XCoRXHKkREuJSzWgW9q9-0" target="OI4hxTIJySu8GPAiDE6H-3">
          <mxGeometry width="160" relative="1" as="geometry">
            <mxPoint x="350" y="310" as="sourcePoint" />
            <mxPoint x="510" y="310" as="targetPoint" />
          </mxGeometry>
        </mxCell>
        <mxCell id="J_B-TjtiFGGUg9mXbcbh-7" value="manage order" style="swimlane;fontStyle=1;align=center;verticalAlign=top;childLayout=stackLayout;horizontal=1;startSize=30;horizontalStack=0;resizeParent=1;resizeParentMax=0;resizeLast=0;collapsible=1;marginBottom=0;fontSize=13;" vertex="1" parent="Jy8FBLsH5X0j3uAHUraW-1">
          <mxGeometry x="600" y="390" width="160" height="140" as="geometry" />
        </mxCell>
        <mxCell id="J_B-TjtiFGGUg9mXbcbh-8" value="service_id" style="text;strokeColor=none;fillColor=none;align=left;verticalAlign=top;spacingLeft=4;spacingRight=4;overflow=hidden;rotatable=0;points=[[0,0.5],[1,0.5]];portConstraint=eastwest;fontSize=13;" vertex="1" parent="J_B-TjtiFGGUg9mXbcbh-7">
          <mxGeometry y="30" width="160" height="26" as="geometry" />
        </mxCell>
        <mxCell id="J_B-TjtiFGGUg9mXbcbh-9" value="" style="line;strokeWidth=1;fillColor=none;align=left;verticalAlign=middle;spacingTop=-1;spacingLeft=3;spacingRight=3;rotatable=0;labelPosition=right;points=[];portConstraint=eastwest;fontSize=13;" vertex="1" parent="J_B-TjtiFGGUg9mXbcbh-7">
          <mxGeometry y="56" width="160" height="8" as="geometry" />
        </mxCell>
        <mxCell id="J_B-TjtiFGGUg9mXbcbh-10" value="update()&#xa;delete()&#xa;search id(service_id)&#xa;" style="text;strokeColor=none;fillColor=none;align=left;verticalAlign=top;spacingLeft=4;spacingRight=4;overflow=hidden;rotatable=0;points=[[0,0.5],[1,0.5]];portConstraint=eastwest;fontSize=13;" vertex="1" parent="J_B-TjtiFGGUg9mXbcbh-7">
          <mxGeometry y="64" width="160" height="76" as="geometry" />
        </mxCell>
        <mxCell id="VAz7YMJL-zlhsp2lH_a_-0" value="Rate Service" style="swimlane;fontStyle=1;align=center;verticalAlign=top;childLayout=stackLayout;horizontal=1;startSize=30;horizontalStack=0;resizeParent=1;resizeParentMax=0;resizeLast=0;collapsible=1;marginBottom=0;fontSize=13;" vertex="1" parent="Jy8FBLsH5X0j3uAHUraW-1">
          <mxGeometry x="320" y="290" width="200" height="140" as="geometry" />
        </mxCell>
        <mxCell id="VAz7YMJL-zlhsp2lH_a_-1" value="service_id" style="text;strokeColor=none;fillColor=none;align=left;verticalAlign=top;spacingLeft=4;spacingRight=4;overflow=hidden;rotatable=0;points=[[0,0.5],[1,0.5]];portConstraint=eastwest;fontSize=13;" vertex="1" parent="VAz7YMJL-zlhsp2lH_a_-0">
          <mxGeometry y="30" width="200" height="26" as="geometry" />
        </mxCell>
        <mxCell id="VAz7YMJL-zlhsp2lH_a_-2" value="" style="line;strokeWidth=1;fillColor=none;align=left;verticalAlign=middle;spacingTop=-1;spacingLeft=3;spacingRight=3;rotatable=0;labelPosition=right;points=[];portConstraint=eastwest;fontSize=13;" vertex="1" parent="VAz7YMJL-zlhsp2lH_a_-0">
          <mxGeometry y="56" width="200" height="8" as="geometry" />
        </mxCell>
        <mxCell id="VAz7YMJL-zlhsp2lH_a_-3" value="search service(service_id)&#xa;search appintment(service_id)&#xa;rate()" style="text;strokeColor=none;fillColor=none;align=left;verticalAlign=top;spacingLeft=4;spacingRight=4;overflow=hidden;rotatable=0;points=[[0,0.5],[1,0.5]];portConstraint=eastwest;fontSize=13;" vertex="1" parent="VAz7YMJL-zlhsp2lH_a_-0">
          <mxGeometry y="64" width="200" height="76" as="geometry" />
        </mxCell>
        <mxCell id="0wIB4uBKD5g6EoKJYWfj-0" value="Ask for maintenence" style="swimlane;fontStyle=1;align=center;verticalAlign=top;childLayout=stackLayout;horizontal=1;startSize=30;horizontalStack=0;resizeParent=1;resizeParentMax=0;resizeLast=0;collapsible=1;marginBottom=0;fontSize=13;" vertex="1" parent="Jy8FBLsH5X0j3uAHUraW-1">
          <mxGeometry x="600" y="220" width="160" height="164" as="geometry" />
        </mxCell>
        <mxCell id="0wIB4uBKD5g6EoKJYWfj-1" value="location&#xa;details&#xa;" style="text;strokeColor=none;fillColor=none;align=left;verticalAlign=top;spacingLeft=4;spacingRight=4;overflow=hidden;rotatable=0;points=[[0,0.5],[1,0.5]];portConstraint=eastwest;fontSize=13;" vertex="1" parent="0wIB4uBKD5g6EoKJYWfj-0">
          <mxGeometry y="30" width="160" height="50" as="geometry" />
        </mxCell>
        <mxCell id="0wIB4uBKD5g6EoKJYWfj-2" value="" style="line;strokeWidth=1;fillColor=none;align=left;verticalAlign=middle;spacingTop=-1;spacingLeft=3;spacingRight=3;rotatable=0;labelPosition=right;points=[];portConstraint=eastwest;fontSize=13;" vertex="1" parent="0wIB4uBKD5g6EoKJYWfj-0">
          <mxGeometry y="80" width="160" height="8" as="geometry" />
        </mxCell>
        <mxCell id="0wIB4uBKD5g6EoKJYWfj-3" value="choose service()&#xa;make an appointment()&#xa;generate service id()" style="text;strokeColor=none;fillColor=none;align=left;verticalAlign=top;spacingLeft=4;spacingRight=4;overflow=hidden;rotatable=0;points=[[0,0.5],[1,0.5]];portConstraint=eastwest;fontSize=13;" vertex="1" parent="0wIB4uBKD5g6EoKJYWfj-0">
          <mxGeometry y="88" width="160" height="76" as="geometry" />
        </mxCell>
        <mxCell id="8rfjKOyg3uuW1dD57ncB-0" value="Ask for cleaning" style="swimlane;fontStyle=1;align=center;verticalAlign=top;childLayout=stackLayout;horizontal=1;startSize=30;horizontalStack=0;resizeParent=1;resizeParentMax=0;resizeLast=0;collapsible=1;marginBottom=0;fontSize=13;" vertex="1" parent="Jy8FBLsH5X0j3uAHUraW-1">
          <mxGeometry x="600" y="40" width="160" height="164" as="geometry" />
        </mxCell>
        <mxCell id="8rfjKOyg3uuW1dD57ncB-1" value="location&#xa;details&#xa;" style="text;strokeColor=none;fillColor=none;align=left;verticalAlign=top;spacingLeft=4;spacingRight=4;overflow=hidden;rotatable=0;points=[[0,0.5],[1,0.5]];portConstraint=eastwest;fontSize=13;" vertex="1" parent="8rfjKOyg3uuW1dD57ncB-0">
          <mxGeometry y="30" width="160" height="50" as="geometry" />
        </mxCell>
        <mxCell id="8rfjKOyg3uuW1dD57ncB-2" value="" style="line;strokeWidth=1;fillColor=none;align=left;verticalAlign=middle;spacingTop=-1;spacingLeft=3;spacingRight=3;rotatable=0;labelPosition=right;points=[];portConstraint=eastwest;fontSize=13;" vertex="1" parent="8rfjKOyg3uuW1dD57ncB-0">
          <mxGeometry y="80" width="160" height="8" as="geometry" />
        </mxCell>
        <mxCell id="8rfjKOyg3uuW1dD57ncB-3" value="choose service()&#xa;make an appointment()&#xa;generate service id()" style="text;strokeColor=none;fillColor=none;align=left;verticalAlign=top;spacingLeft=4;spacingRight=4;overflow=hidden;rotatable=0;points=[[0,0.5],[1,0.5]];portConstraint=eastwest;fontSize=13;" vertex="1" parent="8rfjKOyg3uuW1dD57ncB-0">
          <mxGeometry y="88" width="160" height="76" as="geometry" />
        </mxCell>
        <mxCell id="8rfjKOyg3uuW1dD57ncB-4" value="check credit" style="swimlane;fontStyle=1;align=center;verticalAlign=top;childLayout=stackLayout;horizontal=1;startSize=30;horizontalStack=0;resizeParent=1;resizeParentMax=0;resizeLast=0;collapsible=1;marginBottom=0;fontSize=13;" vertex="1" parent="Jy8FBLsH5X0j3uAHUraW-1">
          <mxGeometry x="840" y="140" width="160" height="164" as="geometry" />
        </mxCell>
        <mxCell id="8rfjKOyg3uuW1dD57ncB-5" value="card_number&#xa;card_type&#xa;" style="text;strokeColor=none;fillColor=none;align=left;verticalAlign=top;spacingLeft=4;spacingRight=4;overflow=hidden;rotatable=0;points=[[0,0.5],[1,0.5]];portConstraint=eastwest;fontSize=13;" vertex="1" parent="8rfjKOyg3uuW1dD57ncB-4">
          <mxGeometry y="30" width="160" height="50" as="geometry" />
        </mxCell>
        <mxCell id="8rfjKOyg3uuW1dD57ncB-6" value="" style="line;strokeWidth=1;fillColor=none;align=left;verticalAlign=middle;spacingTop=-1;spacingLeft=3;spacingRight=3;rotatable=0;labelPosition=right;points=[];portConstraint=eastwest;fontSize=13;" vertex="1" parent="8rfjKOyg3uuW1dD57ncB-4">
          <mxGeometry y="80" width="160" height="8" as="geometry" />
        </mxCell>
        <mxCell id="8rfjKOyg3uuW1dD57ncB-7" value="view order()&#xa;payment details()&#xa;" style="text;strokeColor=none;fillColor=none;align=left;verticalAlign=top;spacingLeft=4;spacingRight=4;overflow=hidden;rotatable=0;points=[[0,0.5],[1,0.5]];portConstraint=eastwest;fontSize=13;" vertex="1" parent="8rfjKOyg3uuW1dD57ncB-4">
          <mxGeometry y="88" width="160" height="76" as="geometry" />
        </mxCell>
        <mxCell id="8rfjKOyg3uuW1dD57ncB-8" value="Transaction" style="swimlane;fontStyle=1;align=center;verticalAlign=top;childLayout=stackLayout;horizontal=1;startSize=30;horizontalStack=0;resizeParent=1;resizeParentMax=0;resizeLast=0;collapsible=1;marginBottom=0;fontSize=13;" vertex="1" parent="Jy8FBLsH5X0j3uAHUraW-1">
          <mxGeometry x="1050" y="145" width="160" height="154" as="geometry" />
        </mxCell>
        <mxCell id="8rfjKOyg3uuW1dD57ncB-9" value="service_id&#xa;Date&#xa;" style="text;strokeColor=none;fillColor=none;align=left;verticalAlign=top;spacingLeft=4;spacingRight=4;overflow=hidden;rotatable=0;points=[[0,0.5],[1,0.5]];portConstraint=eastwest;fontSize=13;" vertex="1" parent="8rfjKOyg3uuW1dD57ncB-8">
          <mxGeometry y="30" width="160" height="40" as="geometry" />
        </mxCell>
        <mxCell id="8rfjKOyg3uuW1dD57ncB-10" value="" style="line;strokeWidth=1;fillColor=none;align=left;verticalAlign=middle;spacingTop=-1;spacingLeft=3;spacingRight=3;rotatable=0;labelPosition=right;points=[];portConstraint=eastwest;fontSize=13;" vertex="1" parent="8rfjKOyg3uuW1dD57ncB-8">
          <mxGeometry y="70" width="160" height="8" as="geometry" />
        </mxCell>
        <mxCell id="8rfjKOyg3uuW1dD57ncB-11" value="save()&#xa;Rollback()" style="text;strokeColor=none;fillColor=none;align=left;verticalAlign=top;spacingLeft=4;spacingRight=4;overflow=hidden;rotatable=0;points=[[0,0.5],[1,0.5]];portConstraint=eastwest;fontSize=13;" vertex="1" parent="8rfjKOyg3uuW1dD57ncB-8">
          <mxGeometry y="78" width="160" height="76" as="geometry" />
        </mxCell>
        <mxCell id="8rfjKOyg3uuW1dD57ncB-12" value="" style="html=1;verticalAlign=bottom;endArrow=open;dashed=1;endSize=8;rounded=0;fontSize=13;strokeWidth=1;entryX=1;entryY=0.5;entryDx=0;entryDy=0;exitX=0;exitY=0.5;exitDx=0;exitDy=0;" edge="1" parent="Jy8FBLsH5X0j3uAHUraW-1" source="8rfjKOyg3uuW1dD57ncB-5" target="8rfjKOyg3uuW1dD57ncB-3">
          <mxGeometry relative="1" as="geometry">
            <mxPoint x="870" y="330" as="sourcePoint" />
            <mxPoint x="790" y="330" as="targetPoint" />
          </mxGeometry>
        </mxCell>
        <mxCell id="8rfjKOyg3uuW1dD57ncB-13" value="" style="endArrow=none;html=1;rounded=0;fontSize=13;endSize=6;strokeWidth=1;entryX=0;entryY=0.5;entryDx=0;entryDy=0;exitX=1;exitY=0.5;exitDx=0;exitDy=0;" edge="1" parent="Jy8FBLsH5X0j3uAHUraW-1" source="XCoRXHKkREuJSzWgW9q9-7" target="8rfjKOyg3uuW1dD57ncB-3">
          <mxGeometry width="50" height="50" relative="1" as="geometry">
            <mxPoint x="420" y="440" as="sourcePoint" />
            <mxPoint x="470" y="390" as="targetPoint" />
          </mxGeometry>
        </mxCell>
        <mxCell id="8rfjKOyg3uuW1dD57ncB-14" value="" style="endArrow=none;html=1;rounded=0;fontSize=13;endSize=6;strokeWidth=1;entryX=0;entryY=0.5;entryDx=0;entryDy=0;exitX=1;exitY=0.5;exitDx=0;exitDy=0;" edge="1" parent="Jy8FBLsH5X0j3uAHUraW-1" source="XCoRXHKkREuJSzWgW9q9-7" target="0wIB4uBKD5g6EoKJYWfj-1">
          <mxGeometry width="50" height="50" relative="1" as="geometry">
            <mxPoint x="510" y="194" as="sourcePoint" />
            <mxPoint x="610" y="202" as="targetPoint" />
          </mxGeometry>
        </mxCell>
        <mxCell id="8rfjKOyg3uuW1dD57ncB-15" value="" style="endArrow=none;html=1;rounded=0;fontSize=13;endSize=6;strokeWidth=1;entryX=0;entryY=0.5;entryDx=0;entryDy=0;exitX=1;exitY=0.5;exitDx=0;exitDy=0;" edge="1" parent="Jy8FBLsH5X0j3uAHUraW-1" source="XCoRXHKkREuJSzWgW9q9-7" target="J_B-TjtiFGGUg9mXbcbh-10">
          <mxGeometry width="50" height="50" relative="1" as="geometry">
            <mxPoint x="510" y="194" as="sourcePoint" />
            <mxPoint x="610" y="334" as="targetPoint" />
          </mxGeometry>
        </mxCell>
        <mxCell id="8rfjKOyg3uuW1dD57ncB-16" value="" style="html=1;verticalAlign=bottom;endArrow=open;dashed=1;endSize=8;rounded=0;fontSize=13;strokeWidth=1;entryX=1;entryY=0.5;entryDx=0;entryDy=0;exitX=0;exitY=0.5;exitDx=0;exitDy=0;" edge="1" parent="Jy8FBLsH5X0j3uAHUraW-1" source="8rfjKOyg3uuW1dD57ncB-5" target="0wIB4uBKD5g6EoKJYWfj-3">
          <mxGeometry relative="1" as="geometry">
            <mxPoint x="850" y="205" as="sourcePoint" />
            <mxPoint x="770" y="176" as="targetPoint" />
          </mxGeometry>
        </mxCell>
        <mxCell id="8rfjKOyg3uuW1dD57ncB-17" value="" style="endArrow=none;html=1;rounded=0;fontSize=13;endSize=6;strokeWidth=1;entryX=1;entryY=0.5;entryDx=0;entryDy=0;exitX=0;exitY=0.5;exitDx=0;exitDy=0;" edge="1" parent="Jy8FBLsH5X0j3uAHUraW-1" source="8rfjKOyg3uuW1dD57ncB-7" target="J_B-TjtiFGGUg9mXbcbh-8">
          <mxGeometry width="50" height="50" relative="1" as="geometry">
            <mxPoint x="510" y="194" as="sourcePoint" />
            <mxPoint x="610" y="502" as="targetPoint" />
          </mxGeometry>
        </mxCell>
        <mxCell id="nOBbR2BqEBffUaT0RsPM-0" value="" style="endArrow=none;html=1;rounded=0;fontSize=13;endSize=6;strokeWidth=1;entryX=0.5;entryY=0;entryDx=0;entryDy=0;exitX=0.488;exitY=1.011;exitDx=0;exitDy=0;exitPerimeter=0;" edge="1" parent="Jy8FBLsH5X0j3uAHUraW-1" source="XCoRXHKkREuJSzWgW9q9-7" target="VAz7YMJL-zlhsp2lH_a_-0">
          <mxGeometry width="50" height="50" relative="1" as="geometry">
            <mxPoint x="510" y="194" as="sourcePoint" />
            <mxPoint x="610" y="176" as="targetPoint" />
          </mxGeometry>
        </mxCell>
        <mxCell id="nOBbR2BqEBffUaT0RsPM-1" value="" style="endArrow=none;html=1;rounded=0;fontSize=13;endSize=6;strokeWidth=1;entryX=0.025;entryY=0;entryDx=0;entryDy=0;exitX=1.008;exitY=-0.024;exitDx=0;exitDy=0;entryPerimeter=0;exitPerimeter=0;" edge="1" parent="Jy8FBLsH5X0j3uAHUraW-1" source="8rfjKOyg3uuW1dD57ncB-7" target="8rfjKOyg3uuW1dD57ncB-11">
          <mxGeometry width="50" height="50" relative="1" as="geometry">
            <mxPoint x="510" y="194" as="sourcePoint" />
            <mxPoint x="610" y="285" as="targetPoint" />
          </mxGeometry>
        </mxCell>
      </root>
    </mxGraphModel>
  </diagram>
</mxfile>
